<svg xmlns="http://www.w3.org/2000/svg" version="1.1" xmlns:xlink="http://www.w3.org/1999/xlink" xmlns:svgjs="http://svgjs.dev/svgjs" width="1500" height="284" viewBox="0 0 1500 284"><g transform="matrix(1,0,0,1,-0.9090909090909918,0.6120383679715076)"><svg viewBox="0 0 396 75" data-background-color="#003366" preserveAspectRatio="xMidYMid meet" height="284" width="1500" xmlns="http://www.w3.org/2000/svg" xmlns:xlink="http://www.w3.org/1999/xlink"><g id="tight-bounds" transform="matrix(1,0,0,1,0.2400000000000091,-0.16162985069669844)"><svg viewBox="0 0 395.52 75.3232597013934" height="75.3232597013934" width="395.52"><g><svg viewBox="0 0 547.9788368452661 104.35768668730648" height="75.3232597013934" width="395.52"><g transform="matrix(1,0,0,1,152.45883684526606,14.422806191950464)"><svg viewBox="0 0 395.52 75.51207430340556" height="75.51207430340556" width="395.52"><g id="textblocktransform"><svg viewBox="0 0 395.52 75.51207430340556" height="75.51207430340556" width="395.52" id="textblock"><g><svg viewBox="0 0 395.52 75.51207430340556" height="75.51207430340556" width="395.52"><g transform="matrix(1,0,0,1,0,0)"><svg width="395.52" viewBox="2.85 -37.1 257.41999999999996 49.151961786097004" height="75.51207430340556" data-palette-color="#ffffff"><path d="M10.95 0.6Q8.85 0.6 7.1 0.23 5.35-0.15 4.23-0.6 3.1-1.05 3.1-1.1L3.1-1.1 2.85-1.6Q2.9-1.9 3.05-3.1 3.2-4.3 3.33-6.23 3.45-8.15 3.45-10.3L3.45-10.3 5.7-10.55Q5.7-6.8 6.2-5 6.7-3.2 8.05-2.53 9.4-1.85 12.2-1.85L12.2-1.85Q15.35-1.85 17.25-3.33 19.15-4.8 19.15-7.35L19.15-7.35Q19.15-8.85 18.13-10.05 17.1-11.25 15.7-12.1 14.3-12.95 11.55-14.4L11.55-14.4Q8.95-15.75 7.3-16.88 5.65-18 4.53-19.55 3.4-21.1 3.4-23.15L3.4-23.15Q3.4-25.75 4.93-27.88 6.45-30 9.08-31.23 11.7-32.45 14.9-32.45L14.9-32.45Q16.9-32.45 18.6-32.18 20.3-31.9 21.3-31.6 22.3-31.3 22.55-31.2L22.55-31.2 22.7-30.9Q22.65-30.6 22.45-29.5 22.25-28.4 22-26.45 21.75-24.5 21.6-22.45L21.6-22.45 19.65-22.25 19.35-22.5Q19.4-22.7 19.45-23.43 19.5-24.15 19.5-25.1L19.5-25.1Q19.5-27.75 18.2-28.75 16.9-29.75 13.55-29.75L13.55-29.75Q10.8-29.75 9.03-28.38 7.25-27 7.25-24.95L7.25-24.95Q7.25-22.95 8.97-21.48 10.7-20 14.05-18.25L14.05-18.25Q17.3-16.6 19-15.53 20.7-14.45 22-12.85 23.3-11.25 23.3-9.15L23.3-9.15Q23.3-6.35 21.73-4.13 20.15-1.9 17.35-0.65 14.55 0.6 10.95 0.6L10.95 0.6ZM27.3 12.05Q26.9 12.05 26 10.88 25.1 9.7 25.1 9.2L25.1 9.2 25.35 8.85Q28.15 8.85 30.57 6.53 33 4.2 34.75 0L34.75 0Q30.9-12.2 28.55-18.4L28.55-18.4Q28.1-19.65 27.27-20.2 26.45-20.75 25.15-20.8L25.15-20.8 25.05-21 25.35-22.65 29.5-22.6Q31.35-22.6 33.17-22.75 35-22.9 35.5-22.95L35.5-22.95 35.6-22.7 35.3-21.15Q33.6-21.1 33.02-20.83 32.45-20.55 32.45-19.85L32.45-19.85Q32.45-19.05 33.42-15.7 34.4-12.35 35.45-9.03 36.5-5.7 36.85-4.7L36.85-4.7 37.05-4.7Q42.8-18.45 42.8-19.65L42.8-19.65Q42.8-20.95 40.9-20.95L40.9-20.95 38.6-20.95 38.5-21.15 38.8-22.8Q39.25-22.75 40.8-22.68 42.35-22.6 43.9-22.6L43.9-22.6 48.15-22.65 47.8-20.8Q46.7-20.6 46.12-20.03 45.55-19.45 45-17.95L45-17.95 38.65-2.75Q36.05 3.55 34.4 6.6 32.75 9.65 31.15 10.88 29.55 12.1 27.3 12.05L27.3 12.05ZM64.05-1.45Q65.55-1.85 66.2-2.63 66.84-3.4 66.84-4.7L66.84-4.7 67.05-14.6Q67.05-17.1 65.97-18.45 64.9-19.8 62.9-19.8L62.9-19.8Q61.3-19.8 59.65-18.98 58-18.15 56.75-17.2L56.75-17.2Q56.3-6.85 56.3-4.9L56.3-4.9Q56.3-3.35 56.7-2.73 57.09-2.1 58.09-2.1L58.09-2.1Q58.65-2.1 59.15-2.15 59.65-2.2 59.84-2.2L59.84-2.2 59.95-2 59.5 0.15Q59.05 0.1 57.75 0.05 56.45 0 54.95 0L54.95 0Q53.3 0 51.9 0.05 50.5 0.1 50 0.1L50 0.1 50.3-1.95Q51.75-2.1 52.32-2.7 52.9-3.3 52.9-4.7L52.9-4.7 52.9-16.9Q52.9-18.6 52.34-19.28 51.8-19.95 50.45-19.95L50.45-19.95 49.9-19.95 49.75-20.15 49.9-21.8Q52.05-22.15 54.17-22.63 56.3-23.1 56.9-23.25L56.9-23.25 57.2-22.85Q57.09-22.55 56.9-21.58 56.7-20.6 56.65-19.55L56.65-19.55 56.75-19.4Q62.34-23.2 64.09-23.2L64.09-23.2Q66.5-23.2 68.15-22.18 69.8-21.15 70.5-19.25L70.5-19.25Q72.3-20.55 74.55-21.88 76.8-23.2 78.05-23.2L78.05-23.2Q81.19-23.2 83.05-21.45 84.9-19.7 84.9-16.75L84.9-16.75Q84.9-16.25 84.59-12.15L84.59-12.15Q84.19-6.95 84.19-4.9L84.19-4.9Q84.19-3.35 84.59-2.73 85-2.1 86-2.1L86-2.1Q86.55-2.1 87.05-2.15 87.55-2.2 87.75-2.2L87.75-2.2 87.84-2 87.4 0.15Q86.95 0.1 85.65 0.05 84.34 0 82.84 0L82.84 0Q81.55 0 79.97 0.13 78.4 0.25 77.9 0.3L77.9 0.3 78.15-1.75Q79.59-2 80.19-2.65 80.8-3.3 80.8-4.7L80.8-4.7 81-14.6Q81-17.1 79.92-18.45 78.84-19.8 76.84-19.8L76.84-19.8Q74.25-19.8 70.8-17.3L70.8-17.3 70.25-4.9Q70.25-3.45 70.65-2.78 71.05-2.1 72-2.1L72-2.1Q72.55-2.1 73.05-2.15 73.55-2.2 73.75-2.2L73.75-2.2 73.84-2 73.45 0.15Q73 0.1 71.75 0.05 70.5 0 69 0L69 0Q67.7 0 66.02 0.25 64.34 0.5 63.84 0.6L63.84 0.6 64.05-1.45ZM100.54 0.6Q98.44 0.6 96.27 0.33 94.09 0.05 94.09 0L94.09 0 93.64-0.4 93.64-31.3Q93.64-34 91.79-34L91.79-34Q91.39-34 91.09-33.95 90.79-33.9 90.69-33.85L90.69-33.85 90.54-34 90.74-35.65Q92.89-35.95 95.19-36.45 97.49-36.95 98.14-37.1L98.14-37.1 98.44-36.45Q98.09-35.95 97.79-31.38 97.49-26.8 97.29-19.7L97.29-19.7Q99.54-21.3 101.17-22.25 102.79-23.2 103.34-23.2L103.34-23.2Q106.14-23.2 108.34-21.85 110.54-20.5 111.77-18.07 112.99-15.65 112.99-12.5L112.99-12.5Q112.99-8.9 111.32-5.9 109.64-2.9 106.79-1.15 103.94 0.6 100.54 0.6L100.54 0.6ZM101.94-2.15Q105.29-2.15 107.22-4.42 109.14-6.7 109.14-10.65L109.14-10.65Q109.14-13.15 108.27-15.25 107.39-17.35 105.87-18.57 104.34-19.8 102.54-19.8L102.54-19.8Q101.54-19.8 99.99-19.03 98.44-18.25 97.19-17.1L97.19-17.1 97.04-3.2Q97.94-2.75 99.34-2.45 100.74-2.15 101.94-2.15L101.94-2.15ZM116.99 0.6L117.19-1.45Q118.69-1.85 119.34-2.63 119.99-3.4 119.99-4.7L119.99-4.7 119.99-17.4Q119.99-20.1 118.14-20.1L118.14-20.1Q117.79-20.1 117.39-20.03 116.99-19.95 116.89-19.9L116.89-19.9 117.09-21.75Q119.19-22.05 121.42-22.55 123.64-23.05 124.29-23.2L124.29-23.2 124.54-22.6Q124.09-21.55 123.74-16.18 123.39-10.8 123.39-4.9L123.39-4.9Q123.39-3.45 123.79-2.78 124.19-2.1 125.14-2.1L125.14-2.1Q125.69-2.1 126.19-2.15 126.69-2.2 126.89-2.2L126.89-2.2 126.99-2 126.59 0.15Q126.14 0.1 124.89 0.05 123.64 0 122.14 0L122.14 0Q120.84 0 119.17 0.25 117.49 0.5 116.99 0.6L116.99 0.6ZM121.39-29.1Q120.24-29.1 119.59-29.85 118.94-30.6 118.94-31.65L118.94-31.65Q118.94-32.85 119.79-33.73 120.64-34.6 121.89-34.6L121.89-34.6Q123.04-34.6 123.69-33.85 124.34-33.1 124.34-32.05L124.34-32.05Q124.34-30.85 123.49-29.98 122.64-29.1 121.39-29.1L121.39-29.1ZM140.39 0.6Q137.54 0.6 135.34-0.8 133.14-2.2 131.91-4.73 130.69-7.25 130.69-10.5L130.69-10.5Q130.69-14 132.21-16.93 133.74-19.85 136.39-21.53 139.04-23.2 142.29-23.2L142.29-23.2Q145.09-23.2 147.31-21.8 149.54-20.4 150.76-17.88 151.99-15.35 151.99-12.1L151.99-12.1Q151.99-8.6 150.46-5.68 148.94-2.75 146.29-1.07 143.64 0.6 140.39 0.6L140.39 0.6ZM141.79-1.85Q144.59-1.85 146.24-4.13 147.89-6.4 147.89-10.3L147.89-10.3Q147.89-13.25 146.99-15.58 146.09-17.9 144.46-19.2 142.84-20.5 140.79-20.5L140.79-20.5Q137.99-20.5 136.34-18.2 134.69-15.9 134.69-11.95L134.69-11.95Q134.69-9 135.59-6.7 136.49-4.4 138.09-3.13 139.69-1.85 141.79-1.85L141.79-1.85ZM164.09 0.6Q160.69 0.6 159.29-0.78 157.89-2.15 157.89-5.45L157.89-5.45 157.89-17.75Q157.89-19.1 157.29-19.65 156.69-20.2 155.04-20.25L155.04-20.25 154.84-20.55 155.09-22.05Q156.54-22.75 157.91-23.78 159.29-24.8 160.16-25.58 161.04-26.35 161.29-26.6L161.29-26.6 162.29-26.2Q162.24-25.95 162.14-25 162.04-24.05 161.89-22.45L161.89-22.45 169.24-22.6 169.39-22.45 168.94-19.8 161.69-19.95Q161.34-14.45 161.34-7.45L161.34-7.45Q161.34-4.9 162.21-3.85 163.09-2.8 165.24-2.8L165.24-2.8Q165.99-2.8 166.74-3 167.49-3.2 167.99-3.43 168.49-3.65 168.64-3.7L168.64-3.7 169.14-2.4Q168.84-2.15 167.86-1.45 166.89-0.75 165.76-0.08 164.64 0.6 164.09 0.6L164.09 0.6ZM172.48 0.6L172.68-1.45Q174.18-1.85 174.83-2.63 175.48-3.4 175.48-4.7L175.48-4.7 175.48-17.4Q175.48-20.1 173.63-20.1L173.63-20.1Q173.28-20.1 172.88-20.03 172.48-19.95 172.38-19.9L172.38-19.9 172.58-21.75Q174.68-22.05 176.91-22.55 179.13-23.05 179.78-23.2L179.78-23.2 180.03-22.6Q179.58-21.55 179.23-16.18 178.88-10.8 178.88-4.9L178.88-4.9Q178.88-3.45 179.28-2.78 179.68-2.1 180.63-2.1L180.63-2.1Q181.18-2.1 181.68-2.15 182.18-2.2 182.38-2.2L182.38-2.2 182.48-2 182.08 0.15Q181.63 0.1 180.38 0.05 179.13 0 177.63 0L177.63 0Q176.33 0 174.66 0.25 172.98 0.5 172.48 0.6L172.48 0.6ZM176.88-29.1Q175.73-29.1 175.08-29.85 174.43-30.6 174.43-31.65L174.43-31.65Q174.43-32.85 175.28-33.73 176.13-34.6 177.38-34.6L177.38-34.6Q178.53-34.6 179.18-33.85 179.83-33.1 179.83-32.05L179.83-32.05Q179.83-30.85 178.98-29.98 178.13-29.1 176.88-29.1L176.88-29.1ZM196.63 0.6Q191.88 0.6 189.03-2.4 186.18-5.4 186.18-10.45L186.18-10.45Q186.18-14 187.71-16.93 189.23-19.85 191.86-21.53 194.48-23.2 197.73-23.2L197.73-23.2Q199.13-23.2 200.43-23 201.73-22.8 202.56-22.58 203.38-22.35 203.58-22.25L203.58-22.25 203.73-21.9Q203.68-21.65 203.46-20.73 203.23-19.8 202.98-18.28 202.73-16.75 202.68-15L202.68-15 200.63-14.85 200.63-16.4Q200.63-18.25 199.51-19.38 198.38-20.5 196.53-20.5L196.53-20.5Q193.48-20.5 191.83-18.32 190.18-16.15 190.18-12.15L190.18-12.15Q190.18-7.8 192.01-5.28 193.83-2.75 196.98-2.75L196.98-2.75Q198.23-2.75 199.48-3.13 200.73-3.5 201.58-3.88 202.43-4.25 202.63-4.4L202.63-4.4 202.93-4.3 203.48-2.75Q203.13-2.5 201.96-1.7 200.78-0.9 199.26-0.15 197.73 0.6 196.63 0.6L196.63 0.6ZM232.08 0.5L231.93 0.15 232.13-1.8Q234.68-2 235.63-2.4 236.58-2.8 236.58-3.7L236.58-3.7Q236.58-4.7 236.13-6.1L236.13-6.1 234.48-11.55Q233.28-11.6 229.28-11.6L229.28-11.6Q226.88-11.6 223.83-11.2L223.83-11.2 221.98-6Q221.53-4.65 221.53-4.05L221.53-4.05Q221.53-2.95 222.23-2.48 222.93-2 224.53-2L224.53-2 227.38-2 227.48-1.8 227.18 0.35Q226.58 0.3 224.43 0.15 222.28 0 220.23 0L220.23 0Q218.38 0 216.8 0.05 215.23 0.1 214.73 0.15L214.73 0.15 215.13-2.2Q216.53-2.35 217.38-3.18 218.23-4 219.03-6.05L219.03-6.05 228.78-31.6 231.93-32.45 232.33-32.45Q232.63-31.25 233.85-26.9 235.08-22.55 236.85-16.6 238.63-10.65 240.28-5.65L240.28-5.65Q240.88-3.8 241.88-3.05 242.88-2.3 245.08-2.1L245.08-2.1 245.18-1.9 244.83 0.15Q244.23 0.15 242.65 0.08 241.08 0 239.53 0L239.53 0Q237.13 0 234.9 0.2 232.68 0.4 232.08 0.5L232.08 0.5ZM224.73-13.65L229.13-13.65Q230.93-13.65 233.78-13.9L233.78-13.9 229.83-27 229.48-27 224.73-13.65ZM247.47 0.6L247.77-1.7Q250.12-2.15 250.95-3.03 251.77-3.9 251.77-6L251.77-6 251.82-27Q251.82-28.6 251.45-29.15 251.07-29.7 249.97-29.7L249.97-29.7 247.87-29.6 247.77-29.8 248.12-32Q248.92-32 249.37-31.95L249.37-31.95 254.07-31.85Q256.32-31.85 259.82-32.3L259.82-32.3 259.62-30.05Q257.57-29.8 256.85-29.23 256.12-28.65 256.02-27.2L256.02-27.2Q255.72-21.35 255.52-14.98 255.32-8.6 255.32-5.6L255.32-5.6Q255.32-3.55 255.77-2.88 256.22-2.2 257.52-2.2L257.52-2.2Q258.37-2.2 260.17-2.35L260.17-2.35 260.27-2.15 259.82 0.15Q259.12 0.15 258.72 0.1L258.72 0.1Q255.22 0 253.27 0L253.27 0Q250.82 0 247.47 0.6L247.47 0.6Z" opacity="1" transform="matrix(1,0,0,1,0,0)" fill="#ffffff" class="wordmark-text-0" data-fill-palette-color="primary" id="text-0"></path></svg></g></svg></g></svg></g></svg></g><g><svg viewBox="0 0 134.6322483920153 104.35768668730648" height="104.35768668730648" width="134.6322483920153"><g><svg xmlns="http://www.w3.org/2000/svg" xmlns:xlink="http://www.w3.org/1999/xlink" version="1.1" x="0" y="0" viewBox="4.823 14.981 90.35499999999999 70.037" enable-background="new 0 0 100 100" xml:space="preserve" height="104.35768668730648" width="134.6322483920153" class="icon-icon-0" data-fill-palette-color="accent" id="icon-0"><path fill="#fcfcff" d="M71.611 14.981c-9.679 0-17.985 5.842-21.614 14.185-3.628-8.343-11.922-14.185-21.601-14.185-13.023 0-23.573 10.553-23.573 23.57 0 7.755 3.807 14.581 9.58 18.876l35.594 27.591 35.601-27.591c5.78-4.295 9.58-11.121 9.58-18.876C95.178 25.535 84.621 14.981 71.611 14.981zM72.329 53.09H59.881l-3.455-9.343L48.84 67.1l-7.623-17.074-0.762 2.175H27.673v-3.558h10.258l2.886-8.241 7.499 16.795 7.892-24.296 6.152 16.631h9.97V53.09z" data-fill-palette-color="accent"></path></svg></g></svg></g></svg></g><defs></defs></svg><rect width="395.52" height="75.3232597013934" fill="none" stroke="none" visibility="hidden"></rect></g></svg></g></svg>